<?xml version="1.0" encoding="iso-8859-1"?>
<!-- Uploaded to: SVG Repo, www.svgrepo.com, Generator: SVG Repo Mixer Tools -->
<!DOCTYPE svg PUBLIC "-//W3C//DTD SVG 1.1//EN" "http://www.w3.org/Graphics/SVG/1.1/DTD/svg11.dtd">
<svg height="800px" width="800px" version="1.1" id="Capa_1" xmlns="http://www.w3.org/2000/svg" xmlns:xlink="http://www.w3.org/1999/xlink" 
	 viewBox="0 0 297.5 297.5" xml:space="preserve">
<g>
	<g id="XMLID_27_">
		<g>
			<path style="fill:#00C08D;" d="M220.405,28.67v138.88h-15.1l-9.92-22.43c-1.53-3.46-4.91-5.74-8.69-5.87
				c-3.78-0.16-7.3,1.9-9.08,5.24l-17.28,32.52l-3.35-5.05c-2-3-5.48-4.69-9.07-4.38c-3.6,0.31-6.74,2.55-8.2,5.85l-3.5,7.89
				l-16.03-36.2c-1.58-3.57-5.12-5.88-9.03-5.88c-3.91,0-7.46,2.31-9.04,5.88l-9.93,22.43h-15.09V28.67c0-4.77,3.88-8.65,8.65-8.65
				h126.01C216.525,20.02,220.405,23.9,220.405,28.67z M180.865,85.74c0-5.46-4.42-9.88-9.88-9.88h-12.35V63.5
				c0-5.45-4.43-9.88-9.89-9.88c-5.46,0-9.88,4.43-9.88,9.88v12.36h-12.35c-5.46,0-9.89,4.42-9.89,9.88s4.43,9.89,9.89,9.89h12.35
				v12.35c0,5.46,4.42,9.88,9.88,9.88c5.46,0,9.89-4.42,9.89-9.88V95.63h12.35C176.445,95.63,180.865,91.2,180.865,85.74z"/>
			<path style="fill:#CDD9DD;" d="M220.405,248.33v20.5c0,4.77-3.88,8.65-8.65,8.65H85.745c-4.77,0-8.65-3.88-8.65-8.65v-20.5
				H220.405z M166.785,263.15c0-5.46-4.42-9.88-9.88-9.88h-16.31c-5.46,0-9.88,4.42-9.88,9.88s4.42,9.89,9.88,9.89h16.31
				C162.365,273.04,166.785,268.61,166.785,263.15z"/>
			<path style="fill:#FF4855;" d="M220.405,187.31v41.25H77.095v-41.25h21.53c3.91,0,7.45-2.3,9.03-5.88l3.5-7.89l16.02,36.2
				c1.59,3.57,5.13,5.88,9.04,5.88s7.46-2.31,9.04-5.88l5.23-11.83l2.56,3.86c1.93,2.9,5.24,4.57,8.72,4.4s6.61-2.16,8.24-5.23
				l15.53-29.23l4.3,9.72c1.59,3.58,5.13,5.88,9.04,5.88H220.405z"/>
			<path d="M240.175,28.67v240.16c0,15.67-12.75,28.42-28.42,28.42H85.745c-15.67,0-28.42-12.75-28.42-28.42V28.67
				c0-15.67,12.75-28.42,28.42-28.42h126.01C227.425,0.25,240.175,13,240.175,28.67z M220.405,268.83v-20.5H77.095v20.5
				c0,4.77,3.88,8.65,8.65,8.65h126.01C216.525,277.48,220.405,273.6,220.405,268.83z M220.405,228.56v-41.25h-21.53
				c-3.91,0-7.45-2.3-9.04-5.88l-4.3-9.72l-15.53,29.23c-1.63,3.07-4.76,5.06-8.24,5.23s-6.79-1.5-8.72-4.4l-2.56-3.86l-5.23,11.83
				c-1.58,3.57-5.13,5.88-9.04,5.88s-7.45-2.31-9.04-5.88l-16.02-36.2l-3.5,7.89c-1.58,3.58-5.12,5.88-9.03,5.88h-21.53v41.25
				H220.405z M220.405,167.55V28.67c0-4.77-3.88-8.65-8.65-8.65H85.745c-4.77,0-8.65,3.88-8.65,8.65v138.88h15.09l9.93-22.43
				c1.58-3.57,5.13-5.88,9.04-5.88c3.91,0,7.45,2.31,9.03,5.88l16.03,36.2l3.5-7.89c1.46-3.3,4.6-5.54,8.2-5.85
				c3.59-0.31,7.07,1.38,9.07,4.38l3.35,5.05l17.28-32.52c1.78-3.34,5.3-5.4,9.08-5.24c3.78,0.13,7.16,2.41,8.69,5.87l9.92,22.43
				H220.405z"/>
			<path d="M170.985,75.86c5.46,0,9.88,4.42,9.88,9.88s-4.42,9.89-9.88,9.89h-12.35v12.35c0,5.46-4.43,9.88-9.89,9.88
				c-5.46,0-9.88-4.42-9.88-9.88V95.63h-12.35c-5.46,0-9.89-4.43-9.89-9.89s4.43-9.88,9.89-9.88h12.35V63.5
				c0-5.45,4.42-9.88,9.88-9.88c5.46,0,9.89,4.43,9.89,9.88v12.36H170.985z"/>
			<path d="M156.905,253.27c5.46,0,9.88,4.42,9.88,9.88s-4.42,9.89-9.88,9.89h-16.31c-5.46,0-9.88-4.43-9.88-9.89
				s4.42-9.88,9.88-9.88H156.905z"/>
		</g>
		<g>
		</g>
	</g>
</g>
</svg>